<svg xmlns="http://www.w3.org/2000/svg" xmlns:svgjs="http://svgjs.com/svgjs" xmlns:xlink="http://www.w3.org/1999/xlink" width="288" height="288"><svg xmlns="http://www.w3.org/2000/svg" width="288" height="288" fill="currentColor" class="mercado-match" data-supported-dps="24x24" viewBox="0 0 24 24"><path fill="#0a66c2" d="M13.96 5H6C5.45 5 5 5.45 5 6V16H3V6C3 4.34 4.34 3 6 3H13.96L12 0H14.37L17 4L14.37 8H12L13.96 5ZM19.5 8H19V18C19 18.55 18.55 19 18 19H10.04L12 16H9.63L7 20L9.63 24H12L10.04 21H18C19.66 21 21 19.66 21 18V8H19.5Z" class="color000 svgShape"/></svg></svg>